<svg width="100" height="100" viewBox="0 0 100 74" fill="none" xmlns="http://www.w3.org/2000/svg">
<path d="M95.5297 54.1955L89.4799 52.467C89.2188 52.3924 89.0363 52.1506 89.0363 51.8789V49.8596C89.5285 49.5185 89.998 49.1369 90.4369 48.7109C92.5639 46.6469 93.7352 43.8783 93.7352 40.915V38.1285L94.3201 36.9588C94.9621 35.6746 95.3014 34.2369 95.3014 32.8014V25.2525C95.3014 24.4435 94.6455 23.7877 93.8365 23.7877H79.7402C74.6144 23.7877 70.4441 27.958 70.4441 33.0838V33.1711C70.4441 34.3648 70.7264 35.5603 71.2602 36.6279L72.0104 38.1283V40.5209C72.0104 44.3127 73.8789 47.7148 76.7092 49.7621L76.7096 51.8785C76.7096 52.2049 76.7096 52.34 75.5 52.6857L72.548 53.5291L64.0088 50.424C64.0395 50.0211 63.9035 49.6113 63.6096 49.3025L60.8809 46.4357V41.6232C61.1693 41.3855 61.4537 41.1414 61.7293 40.8832C65.1717 37.6566 67.1459 33.1012 67.1459 28.385V24.5416C68.1853 22.2797 68.7121 19.8861 68.7121 17.4211V1.75897C68.7121 0.949988 68.0563 0.294128 67.2473 0.294128H45.3197C37.6029 0.294128 31.325 6.57225 31.325 14.2889V17.4215C31.325 19.8865 31.8518 22.2801 32.8912 24.542V27.8488C32.8912 33.3246 35.326 38.2578 39.1562 41.5101V46.4359L36.4275 49.3027C36.1336 49.6115 35.9977 50.0213 36.0283 50.4242L27.0156 53.7014C26.3625 53.9389 25.7557 54.2605 25.2047 54.6502L23.7895 53.9426C28.0023 52.1088 29.3369 49.5297 29.401 49.4016C29.6072 48.9892 29.6072 48.5037 29.401 48.0914C28.3449 45.9793 28.217 42.108 28.1143 38.9974C28.0801 37.9619 28.0477 36.9836 27.9857 36.1125C27.4863 29.0863 22.1449 23.7877 15.5609 23.7877C8.97695 23.7877 3.63535 29.0861 3.13613 36.1125C3.07422 36.9838 3.0418 37.9621 3.00762 38.9978C2.90488 42.1082 2.77676 45.9791 1.7209 48.0912C1.51465 48.5035 1.51465 48.989 1.7209 49.4014C1.78496 49.5295 3.1168 52.1033 7.33809 53.9392L3.40703 55.9047C1.30547 56.9562 0 59.0685 0 61.418V72.24C0 73.049 0.655859 73.7049 1.46484 73.7049C2.27383 73.7049 2.92969 73.049 2.92969 72.24V61.418C2.92969 60.1851 3.61465 59.0767 4.71719 58.5254L9.6123 56.0779L11.315 57.6961C12.5057 58.8275 14.033 59.393 15.5609 59.393C17.0885 59.393 18.6166 58.8271 19.8068 57.6961L21.5094 56.0781L23.1055 56.8762C22.3539 58.0787 21.9273 59.4889 21.9273 60.966V72.2404C21.9273 73.0494 22.5832 73.7053 23.3922 73.7053C24.2012 73.7053 24.857 73.0494 24.857 72.2404V60.966C24.857 58.9551 26.1268 57.1422 28.0168 56.4549L37.5191 52.9996L41.4748 58.9334C41.9805 59.692 42.7908 60.1785 43.698 60.2683C43.7992 60.2783 43.8998 60.2832 44.0002 60.2832C44.8006 60.2832 45.5672 59.9682 46.1402 59.3953L48.5535 56.982V72.2406C48.5535 73.0496 49.2094 73.7055 50.0184 73.7055C50.8273 73.7055 51.4832 73.0496 51.4832 72.2406V56.982L53.8965 59.3953C54.4693 59.9683 55.2359 60.2834 56.0365 60.2834C56.1367 60.2834 56.2375 60.2785 56.3385 60.2685C57.2459 60.1787 58.0563 59.6922 58.5619 58.9336L62.5178 53L72.0199 56.4553C73.9098 57.1426 75.1797 58.9555 75.1797 60.9664V72.2408C75.1797 73.0498 75.8355 73.7057 76.6445 73.7057C77.4535 73.7057 78.1094 73.0498 78.1094 72.2408V60.9664C78.1094 58.9297 77.3002 57.0195 75.9428 55.6068L76.3047 55.5035C76.6697 55.3992 77.1678 55.2564 77.6678 55.0113L81.4078 58.7514V72.2408C81.4078 73.0498 82.0637 73.7057 82.8727 73.7057C83.6816 73.7057 84.3375 73.0498 84.3375 72.2408V58.7514L88.0516 55.0373C88.249 55.1377 88.4565 55.2225 88.6748 55.2848L94.7248 57.0133C96.1057 57.4078 97.0703 58.6865 97.0703 60.1228V72.2408C97.0703 73.0498 97.7262 73.7057 98.5352 73.7057C99.3441 73.7057 100 73.0498 100 72.2408V60.1228C100 57.3849 98.1617 54.9476 95.5297 54.1955ZM9.39746 51.6082C6.65742 50.6223 5.28301 49.3078 4.69629 48.59C5.09629 47.5443 5.35566 46.3467 5.53125 45.0824C6.33906 47.0193 7.69199 48.6728 9.39746 49.8525V51.6082ZM17.7891 55.5726C16.5396 56.7598 14.5824 56.7596 13.3334 55.5724L11.9711 54.2779C12.201 53.8473 12.3273 53.359 12.3273 52.8475V51.2861C13.3492 51.6055 14.4355 51.7777 15.5613 51.7777C16.6857 51.7777 17.7715 51.6047 18.7951 51.2871L18.7949 52.8473C18.7949 53.359 18.9211 53.8474 19.1512 54.2783L17.7891 55.5726ZM15.5617 48.848C11.1875 48.848 7.6291 45.2894 7.6291 40.9154C7.6291 40.1064 6.97324 39.4506 6.16426 39.4506C6.08223 39.4506 6.00215 39.459 5.92383 39.4721C5.92812 39.3461 5.93223 39.2199 5.93652 39.0951C5.96914 38.0879 6.00059 37.1365 6.05859 36.3205C6.2457 33.6885 7.29746 31.2631 9.02012 29.4908C10.7582 27.7025 13.0813 26.7178 15.5613 26.7178C18.0414 26.7178 20.3643 27.7025 22.1025 29.4908C23.8252 31.2631 24.877 33.6885 25.0641 36.3205C25.1219 37.1363 25.1535 38.0875 25.1867 39.0945C25.1896 39.181 25.1926 39.2687 25.1955 39.3558C23.6018 36.9004 21.1404 35.0908 17.9602 34.0689C15.0221 33.125 12.4951 33.1834 12.3885 33.1861C12.0049 33.1969 11.6408 33.3574 11.3746 33.6336L8.73164 36.3746C8.17012 36.957 8.18691 37.8844 8.76934 38.4459C9.35176 39.0074 10.2791 38.9904 10.8406 38.4082L13.0398 36.1275C14.9338 36.2201 21.027 36.9287 23.3967 42.1469C22.8004 45.9922 19.4953 48.848 15.5617 48.848ZM21.7244 51.6131L21.7246 49.866C23.4287 48.6928 24.7836 47.0424 25.592 45.0908C25.7676 46.3521 26.0268 47.5471 26.426 48.5904C25.8426 49.3013 24.4617 50.6275 21.7244 51.6131ZM35.8209 27.8486V24.2142C35.8209 23.9937 35.7711 23.776 35.6752 23.5773C34.7326 21.6254 34.2547 19.5543 34.2547 17.4215V14.2891C34.2547 8.18768 39.2186 3.22401 45.3197 3.22401H65.7824V17.4217C65.7824 19.5545 65.3045 21.6256 64.3619 23.5775C64.266 23.7762 64.2162 23.9939 64.2162 24.2144V28.3853C64.2162 32.3523 62.6215 36.0318 59.7258 38.7461C59.3643 39.0848 58.9891 39.4023 58.6012 39.6982C58.5926 39.7041 58.5844 39.7105 58.576 39.7166C55.8633 41.7762 52.5406 42.7771 49.0707 42.5523C41.6408 42.0713 35.8209 35.6127 35.8209 27.8486ZM44.0688 57.3234C44.0586 57.3336 44.035 57.3576 43.9871 57.3525C43.9395 57.3478 43.9207 57.3199 43.9127 57.3078L39.357 50.4742L40.823 48.9338L47.7342 53.6578L44.0688 57.3234ZM50.0186 51.6705L42.0859 46.2482V43.5139C44.1385 44.6234 46.4367 45.3174 48.8811 45.4756C49.2672 45.5006 49.651 45.5129 50.0336 45.5129C52.8346 45.5129 55.5303 44.8433 57.9512 43.5724V46.2482L50.0186 51.6705ZM56.1244 57.3082C56.1164 57.3203 56.0977 57.3482 56.05 57.3529C56.0022 57.359 55.9787 57.3338 55.9684 57.3238L52.3029 53.6584L59.2141 48.9342L60.6803 50.4746L56.1244 57.3082ZM82.8727 56.0723L79.5484 52.7482C79.6064 52.4848 79.6393 52.1963 79.6391 51.8781L79.6389 51.2599C80.5613 51.5627 81.5336 51.7424 82.5396 51.7724C82.6525 51.776 82.7645 51.7775 82.877 51.7775C83.9887 51.7775 85.0738 51.6096 86.1066 51.289V51.8789C86.1066 52.1711 86.1434 52.4574 86.2125 52.7326L82.8727 56.0723ZM88.3967 46.6086C86.8441 48.1152 84.7932 48.9109 82.6277 48.8441C78.3887 48.717 74.94 44.9832 74.94 40.5213V37.7828C74.94 37.5553 74.8871 37.331 74.7854 37.1277L73.8805 35.318C73.549 34.6549 73.3738 33.9127 73.3738 33.1713V33.084C73.3738 29.5734 76.2299 26.7176 79.7402 26.7176H92.3717V32.8015C92.3717 33.7848 92.1393 34.7693 91.6996 35.6488L90.9602 37.1277C90.8584 37.3312 90.8055 37.5553 90.8055 37.7828V40.9152C90.8055 43.0793 89.95 45.1012 88.3967 46.6086Z" fill="#fff"/>
</svg>
