<svg width="100" height="100" viewBox="0 0 100 78" fill="none" xmlns="http://www.w3.org/2000/svg">
<path d="M96.6781 21.7176L56.8156 2.24456C53.3792 0.526349 47.5372 0.526349 44.1008 2.24456L3.32188 21.7176C0.45819 23.0922 0 25.0395 0 26.0704C0 27.1014 0.45819 28.9341 3.32188 30.4233L6.64376 32.0269V50.3545C4.5819 51.1564 3.09278 53.2182 3.09278 55.5092C3.09278 57.8001 4.5819 59.862 6.52921 60.6638L1.37457 77.0441H15.8076L10.6529 60.6638C12.7148 59.862 14.0893 57.8001 14.0893 55.5092C14.0893 53.1037 12.6002 51.1564 10.5384 50.3545V33.9742L16.6094 36.9525V60.7783C16.6094 61.122 16.7239 61.4656 16.953 61.8093C17.5258 62.4966 28.1787 77.0441 49.9427 77.0441C71.7068 77.0441 82.3597 62.382 82.8179 61.8093C83.047 61.4656 83.1615 61.122 83.1615 60.7783V37.067L96.6781 30.4233C99.5418 29.0487 100 27.1014 100 26.0704C99.8855 25.0395 99.5418 23.0922 96.6781 21.7176ZM79.496 60.2056C77.6632 62.4966 67.8121 73.4931 49.9427 73.4931C32.0733 73.4931 22.2222 62.4966 20.3895 60.2056V38.5561L44.1008 49.8963C45.819 50.6982 48.11 51.1564 50.4009 51.1564C52.8064 51.1564 55.0974 50.6982 56.8156 49.7818L79.496 38.6707V60.2056ZM95.0745 27.2159L81.3288 33.9742C80.756 33.9742 80.2978 34.2033 80.0687 34.6615L55.2119 46.689C52.8064 47.949 48.11 47.949 45.5899 46.689L15.0057 32.0269L50.1718 27.9032C51.2027 27.7887 51.89 26.8723 51.7755 25.9559C51.6609 24.925 50.7446 24.2377 49.8282 24.3522L9.04926 29.1632L4.92554 27.2159C3.89462 26.7577 3.66552 26.185 3.66552 26.185C3.66552 26.0704 3.89462 25.6123 4.92554 25.1541L45.7045 5.56644C46.9645 4.9937 48.6827 4.65006 50.4009 4.65006C52.2337 4.65006 54.0664 4.9937 55.2119 5.56644L95.0745 25.0395C96.1054 25.4977 96.3345 25.9559 96.3345 26.185C96.3345 26.185 95.9908 26.7577 95.0745 27.2159Z" fill="#fff"/>
</svg>
