<svg width="100" height="100" viewBox="0 0 100 100" fill="none" xmlns="http://www.w3.org/2000/svg">
<path d="M57.8125 88.2812C56.7344 88.2812 55.8594 89.1562 55.8594 90.2344C55.8594 91.3125 56.7344 92.1875 57.8125 92.1875C58.8906 92.1875 59.7656 91.3125 59.7656 90.2344C59.7656 89.1562 58.8906 88.2812 57.8125 88.2812Z" fill="#fff"/>
<path d="M85.1562 8.98438H79.2969V5.85938C79.2969 2.62852 76.6684 0 73.4375 0H26.5625C23.3316 0 20.7031 2.62852 20.7031 5.85938V8.98438H14.8438C11.6129 8.98438 8.98438 11.6129 8.98438 14.8438C8.98438 27.5502 14.9301 36.8881 24.5758 39.4879C27.8824 46.7662 33.1105 52.9535 39.7465 57.4244C41.275 58.4543 42.1875 60.2174 42.1875 62.1406V72.9021C40.8486 73.2455 39.6203 73.9416 38.617 74.9451C37.141 76.4213 36.3281 78.3828 36.3281 80.4688H34.375C31.1441 80.4688 28.5156 83.0973 28.5156 86.3281V98.0469C28.5156 99.1256 29.3902 100 30.4688 100H69.5312C70.6098 100 71.4844 99.1256 71.4844 98.0469V86.3281C71.4844 83.0973 68.8559 80.4688 65.625 80.4688H63.6719C63.6719 76.8352 61.1783 73.7729 57.8125 72.9035V62.1504C57.8125 60.2209 58.7256 58.4545 60.2555 57.4246C66.892 52.9533 72.1201 46.7658 75.4266 39.4873C85.0709 36.8865 91.0156 27.5492 91.0156 14.8438C91.0156 11.6129 88.3871 8.98438 85.1562 8.98438ZM12.8906 14.8438C12.8906 13.7668 13.7668 12.8906 14.8438 12.8906H20.7031V21.6211C20.7031 26.0732 21.3775 30.433 22.709 34.6316C16.4936 31.5529 12.8906 24.4426 12.8906 14.8438ZM65.625 84.375C66.702 84.375 67.5781 85.2512 67.5781 86.3281V96.0938H32.4219V86.3281C32.4219 85.2512 33.298 84.375 34.375 84.375H65.625ZM75.3906 21.6211C75.3906 26.9562 74.3285 32.1477 72.2332 37.0508C69.2527 44.0268 64.3563 49.9516 58.0734 54.1846C55.4641 55.941 53.9062 58.9189 53.9062 62.1504V74.6094C53.9062 75.6881 54.7809 76.5625 55.8594 76.5625C58.0133 76.5625 59.7656 78.3148 59.7656 80.4688H40.2344C40.2344 79.4262 40.641 78.4455 41.3791 77.7072C42.0811 77.0053 43.0023 76.6033 43.9875 76.5654C44.0381 76.5693 44.0891 76.5713 44.1404 76.5713C45.2189 76.5713 46.0936 75.6881 46.0936 74.6094V62.1406C46.0936 58.916 44.5367 55.942 41.9291 54.185C35.6457 49.9518 30.7492 44.027 27.7684 37.0504C25.6723 32.149 24.6094 26.9578 24.6094 21.6211V5.85938C24.6094 4.78242 25.4855 3.90625 26.5625 3.90625H73.4375C74.5145 3.90625 75.3906 4.78242 75.3906 5.85938V21.6211ZM77.2918 34.6312C78.6227 30.4316 79.2969 26.0721 79.2969 21.6211V12.8906H85.1562C86.2332 12.8906 87.1094 13.7668 87.1094 14.8438C87.1094 24.442 83.5068 31.5521 77.2918 34.6312Z" fill="#fff"/>
<path d="M65.4568 23.0781C65.2273 22.3709 64.616 21.8555 63.8801 21.7488L55.4512 20.5254L51.681 12.8857C51.3519 12.2189 50.673 11.7969 49.9295 11.7969C49.1859 11.7969 48.507 12.2189 48.1779 12.8857L44.4078 20.5254L35.9791 21.7488C35.2431 21.8557 34.632 22.3711 34.4021 23.0781C34.1724 23.7854 34.364 24.5615 34.8965 25.0805L40.9969 31.0258L39.557 39.4217C39.4314 40.1545 39.7326 40.8949 40.3342 41.332C40.9357 41.7689 41.7332 41.8266 42.391 41.4807L49.9297 37.5172L57.4701 41.4807C58.1322 41.8287 58.9293 41.7662 59.5269 41.3318C60.1283 40.8947 60.4295 40.1541 60.3037 39.4213L58.8623 31.0256L64.9625 25.0805C65.4951 24.5615 65.6865 23.7854 65.4568 23.0781ZM55.4004 28.9449C54.94 29.3937 54.7297 30.0404 54.8387 30.6742L55.7842 36.1814L50.8383 33.5816C50.2689 33.2826 49.5892 33.2826 49.0207 33.5818L44.0764 36.1814L45.0209 30.6738C45.1295 30.04 44.9193 29.3936 44.459 28.9449L40.4582 25.0457L45.9857 24.2434C46.6221 24.151 47.1721 23.7514 47.4566 23.1748L49.9297 18.1633L52.4027 23.1748C52.6873 23.7514 53.2373 24.151 53.8736 24.2434L59.4014 25.0457L55.4004 28.9449Z" fill="#fff"/>
<path d="M50 88.2812H42.1875C41.109 88.2812 40.2344 89.1557 40.2344 90.2344C40.2344 91.3131 41.109 92.1875 42.1875 92.1875H50C51.0785 92.1875 51.9531 91.3131 51.9531 90.2344C51.9531 89.1557 51.0785 88.2812 50 88.2812Z" fill="#fff"/>
<path d="M80.0801 94.1406H81.1689C80.6143 94.0306 80.2412 94.0197 80.0801 94.1406Z" fill="#fff"/>
</svg>
